# Made in Blockbench 4.11.2
mtllib dyescrapia_plant.mtl

o cube
v 0.49718445552179136 1 -0.034065544478208754
v 0.49718445552179136 1 -0.034065544478208754
v 0.49718445552179125 1 0.9659344555217911
v 0.49718445552179125 1 0.9659344555217911
v 0.49718445552179125 0 0.9659344555217911
v 0.49718445552179125 0 0.9659344555217911
v 1.0284344555217912 1 0.4971844555217914
v 1.0284344555217912 1 0.4971844555217914
v 0.028434455521791246 1 0.49718445552179114
v 0.028434455521791246 1 0.49718445552179114
v 0.028434455521791246 0 0.49718445552179114
v 0.028434455521791246 0 0.49718445552179114
v 0.3632259977924617 0.985485434560398 0.9954589395717975
v -0.0017116475461014524 0.985485434560398 0.630521294233234
v 0.6857883524538986 0.5694320439671242 0.672896584910361
v 0.32710070711533545 0.5694320439671242 0.3142089395717975
v 0.33275365551977343 0.9486740488732118 1.0255955582948126
v -0.03487792262695488 0.9499385659791465 0.6614242088179882
v 0.6438150477505353 0.525237870142965 0.7034856348684346
v 0.29651165715726185 0.525237870142965 0.35618224427516065
v 1.040726445954352 0.849458857261409 0.3043645279734104
v 0.6871730553610785 0.849458857261409 -0.04918886261986344
v 1.0238140678247833 0.7917163864794536 0.32127690610297915
v 0.67026067723151 0.7917163864794536 -0.032276484490294854
v 0.918236167997192 0.9212120008298632 0.42685480593057046
v 0.5646827774039184 0.9212120008298632 0.07330141533729673
v 0.9013237898676232 0.8634695300479079 0.44376718406013915
v 0.5477703992743495 0.8634695300479079 0.0902137934668652
v 0.9527366283237815 0.876110434560398 0.3945640542951887
v 0.5991832377305081 0.876110434560398 0.04101066370191486
v 0.7027366283237815 0.5225570439671243 0.6445640542951886
v 0.34918323773050775 0.5225570439671243 0.29101066370191475
v 0.9214866283237815 0.9203046083845573 0.4258140542951887
v 0.5679332377305081 0.9203046083845573 0.07226066370191486
v 0.6714866283237815 0.5667512177912836 0.6758140542951886
v 0.31793323773050786 0.5667512177912837 0.32226066370191464
v 0.44907354826162005 0.7403648089978588 0.19660556339526403
v 0.44907354826162005 0.7403648089978588 0.19660556339526403
v 0.32407354826162 0.563588113701222 0.3216055633952639
v 0.32407354826162 0.563588113701222 0.3216055633952639
v 0.32407354826162 0.9171415042944957 0.3216055633952639
v 0.32407354826162 0.9171415042944957 0.3216055633952639
v 0.19907354826161994 0.7403648089978588 0.4466055633952638
v 0.19907354826161994 0.7403648089978588 0.4466055633952638
v 0.7950825214724777 0.7385342263802748 0.548864536606122
v 0.7950825214724777 0.7385342263802748 0.548864536606122
v 0.6700825214724777 0.5617575310836379 0.673864536606122
v 0.6700825214724777 0.5617575310836379 0.673864536606122
v 0.6700825214724777 0.9153109216769115 0.673864536606122
v 0.6700825214724777 0.9153109216769115 0.673864536606122
v 0.5450825214724775 0.7385342263802748 0.7988645366061218
v 0.5450825214724775 0.7385342263802748 0.7988645366061218
v 0.5478014517383805 0.7385342263802747 0.19973056339526418
v 0.5478014517383805 0.7385342263802747 0.19973056339526418
v 0.6728014517383802 0.5617575310836379 0.3247305633952643
v 0.6728014517383802 0.5617575310836379 0.3247305633952643
v 0.6728014517383802 0.9153109216769115 0.32473056339526407
v 0.6728014517383802 0.9153109216769115 0.32473056339526407
v 0.7978014517383802 0.7385342263802748 0.44973056339526435
v 0.7978014517383802 0.7385342263802748 0.44973056339526435
v 0.9211725500006929 0.9229854345603978 0.5697480371172068
v 0.5676191594074189 0.9229854345603978 0.9233014277104801
v 0.6711725500006931 0.5694320439671242 0.31974803711720645
v 0.31761915940741897 0.5694320439671241 0.6733014277104798
v 0.9524225500006929 0.8787912607362387 0.6009980371172067
v 0.5988691594074188 0.8787912607362387 0.9545514277104801
v 0.702422550000693 0.525237870142965 0.3509980371172064
v 0.348869159407419 0.525237870142965 0.7045514277104798
v 0.303301443105669 0.8494588572614089 -0.04591336108661026
v -0.0502519474876052 0.8494588572614089 0.30764002950666314
v 0.32021382123523734 0.7917163864794534 -0.029000982957041677
v -0.03333956935803639 0.7917163864794534 0.32455240763623183
v 0.4257917210628288 0.9212120008298632 0.0765769168705499
v 0.07223833046955497 0.9212120008298632 0.43013030746382347
v 0.44270409919239745 0.8634695300479078 0.09348929500011849
v 0.08915070859912355 0.8634695300479078 0.44704268559339216
v 0.9204458766883996 0.9243370008298633 0.5668116551137053
v 0.5668924860951254 0.924337000829863 0.920365045706979
v 0.9035334985588308 0.8665945300479079 0.5498992769841367
v 0.5499801079655569 0.8665945300479078 0.9034526675774103
v 1.04293615464556 0.8525838572614088 0.6893019330708657
v 0.6893827640522857 0.8525838572614088 1.0428553236641394
v 1.0260237765159912 0.7948413864794535 0.672389554941297
v 0.6724703859227171 0.7948413864794535 1.0259429455345708
v 0.39350096942744706 0.876110434560398 0.042076456543960084
v 0.03994757883417316 0.876110434560398 0.3956298471372336
v 0.6435009694274468 0.5225570439671243 0.2920764565439604
v 0.2899475788341729 0.5225570439671243 0.6456298471372339
v 0.42475096942744706 0.9203046083845572 0.0733264565439602
v 0.07119757883417305 0.9203046083845573 0.4268798471372336
v 0.6747509694274468 0.5667512177912836 0.32332645654396047
v 0.321197578834173 0.5667512177912836 0.6768798471372339
v 0.19554247852752238 0.7403648089978588 0.5457395366061216
v 0.19554247852752238 0.7403648089978588 0.5457395366061216
v 0.3205424785275222 0.563588113701222 0.6707395366061217
v 0.3205424785275222 0.563588113701222 0.6707395366061217
v 0.32054247852752216 0.9171415042944957 0.6707395366061217
v 0.32054247852752216 0.9171415042944957 0.6707395366061217
v 0.4455424785275221 0.740364808997859 0.7957395366061217
v 0.4455424785275221 0.740364808997859 0.7957395366061217
v 0.8728349330271445 1 0.12153397801643773
v 0.8728349330271445 1 0.12153397801643773
v 0.8728349330271445 -0.0625 0.12153397801643773
v 0.8728349330271445 -0.0625 0.12153397801643773
v 0.16572815184059714 1 0.8286407592029854
v 0.16572815184059714 1 0.8286407592029854
v 0.16572815184059714 -0.0625 0.8286407592029854
v 0.16572815184059714 -0.0625 0.8286407592029854
v 0.8728349330271447 1 0.8728349330271448
v 0.8728349330271447 1 0.8728349330271448
v 0.8728349330271447 -0.0625 0.8728349330271448
v 0.8728349330271447 -0.0625 0.8728349330271448
v 0.16572815184059708 1 0.1657281518405972
v 0.16572815184059708 1 0.1657281518405972
v 0.16572815184059708 -0.0625 0.1657281518405972
v 0.16572815184059708 -0.0625 0.1657281518405972
vt 0 1
vt 0 1
vt 0 0.75
vt 0 0.75
vt 0 1
vt 0.25 1
vt 0 1
vt 0.25 1
vt 0 1
vt 0 1
vt 0 0.75
vt 0 0.75
vt 0 1
vt 0.25 1
vt 0 1
vt 0.25 1
vt 0.125 0.17377343749999996
vt 0.125 0.328125
vt 0 0.328125
vt 0 0.17377343749999996
vt 0.125 0.17377343749999996
vt 0.125 0.328125
vt 0 0.328125
vt 0 0.17377343749999996
vt 0 0.5
vt 0 0.375
vt 0.015625 0.375
vt 0.015625 0.5
vt 0.1875 0.390625
vt 0.1875 0.375
vt 0.140625 0.375
vt 0.140625 0.390625
vt 0.1875 0.390625
vt 0.1875 0.375
vt 0.140625 0.375
vt 0.140625 0.390625
vt 0.1875 0.390625
vt 0.1875 0.375
vt 0.140625 0.375
vt 0.140625 0.390625
vt 0.203125 0.453125
vt 0.203125 0.4375
vt 0.15625 0.4375
vt 0.15625 0.453125
vt 0.125 1
vt 0.125 1
vt 0 1
vt 0 1
vt 0.25 0.5
vt 0.25 0.375
vt 0.296875 0.375
vt 0.296875 0.5
vt 0.5 0.609375
vt 0.5 0.734375
vt 0.546875 0.734375
vt 0.546875 0.609375
vt 0.1875 0.390625
vt 0.1875 0.375
vt 0.140625 0.375
vt 0.140625 0.390625
vt 0.1875 0.390625
vt 0.1875 0.375
vt 0.140625 0.375
vt 0.140625 0.390625
vt 0.25 0.375
vt 0.25 0.5
vt 0.125 0.5
vt 0.125 0.375
vt 0.625 0.734375
vt 0.625 0.859375
vt 0.5 0.859375
vt 0.5 0.734375
vt 0 1
vt 0 0.875
vt 0 0.875
vt 0 1
vt 0.1875 0.390625
vt 0.1875 0.375
vt 0.140625 0.375
vt 0.140625 0.390625
vt 0.1875 0.390625
vt 0.1875 0.375
vt 0.140625 0.375
vt 0.140625 0.390625
vt 0.1875 0.390625
vt 0.1875 0.375
vt 0.140625 0.375
vt 0.140625 0.390625
vt 0 1
vt 0 1
vt 0 0.9375
vt 0 0.9375
vt 0 1
vt 0 1
vt 0 0.9375
vt 0 0.9375
vt 0 1
vt 0.0625 1
vt 0 1
vt 0.0625 1
vt 0 1
vt 0.0625 1
vt 0 1
vt 0.0625 1
vt 0.49259690463264627 0.5566992393712087
vt 0.5526757606287913 0.5394719046326463
vt 0.5699030953673537 0.5995507606287913
vt 0.5098242393712087 0.6167780953673537
vt 0.453125 0.4375
vt 0.453125 0.5
vt 0.390625 0.5
vt 0.390625 0.4375
vt 0 1
vt 0 1
vt 0 0.9375
vt 0 0.9375
vt 0 1
vt 0 1
vt 0 0.9375
vt 0 0.9375
vt 0 1
vt 0.0625 1
vt 0 1
vt 0.0625 1
vt 0 1
vt 0.0625 1
vt 0 1
vt 0.0625 1
vt 0.515625 0.484375
vt 0.578125 0.484375
vt 0.578125 0.546875
vt 0.515625 0.546875
vt 0.515625 0.4375
vt 0.515625 0.5
vt 0.453125 0.5
vt 0.453125 0.4375
vt 0 1
vt 0 1
vt 0 0.9375
vt 0 0.9375
vt 0 1
vt 0 1
vt 0 0.9375
vt 0 0.9375
vt 0 1
vt 0.0625 1
vt 0 1
vt 0.0625 1
vt 0 1
vt 0.0625 1
vt 0 1
vt 0.0625 1
vt 0.515625 0.484375
vt 0.578125 0.484375
vt 0.578125 0.546875
vt 0.515625 0.546875
vt 0.515625 0.4375
vt 0.515625 0.5
vt 0.453125 0.5
vt 0.453125 0.4375
vt 0.125 0.375
vt 0.125 0.5
vt 0 0.5
vt 0 0.375
vt 0.625 0.875
vt 0.625 1
vt 0.5 1
vt 0.5 0.875
vt 0 1
vt 0 0.875
vt 0 0.875
vt 0 1
vt 0.1875 0.390625
vt 0.1875 0.375
vt 0.140625 0.375
vt 0.140625 0.390625
vt 0.1875 0.390625
vt 0.1875 0.375
vt 0.140625 0.375
vt 0.140625 0.390625
vt 0.1875 0.390625
vt 0.1875 0.375
vt 0.140625 0.375
vt 0.140625 0.390625
vt 0.203125 0.453125
vt 0.203125 0.4375
vt 0.15625 0.4375
vt 0.15625 0.453125
vt 0.125 1
vt 0.125 1
vt 0 1
vt 0 1
vt 0.25 0.5
vt 0.25 0.375
vt 0.296875 0.375
vt 0.296875 0.5
vt 0.5 0.609375
vt 0.5 0.734375
vt 0.546875 0.734375
vt 0.546875 0.609375
vt 0.1875 0.390625
vt 0.1875 0.375
vt 0.140625 0.375
vt 0.140625 0.390625
vt 0.1875 0.390625
vt 0.1875 0.375
vt 0.140625 0.375
vt 0.140625 0.390625
vt 0.125 1
vt 0.125 1
vt 0 1
vt 0 1
vt 0.203125 0.453125
vt 0.203125 0.4375
vt 0.15625 0.4375
vt 0.15625 0.453125
vt 0.296875 0.5
vt 0.296875 0.375
vt 0.34375 0.375
vt 0.34375 0.5
vt 0.34375 0.375
vt 0.34375 0.5
vt 0.390625 0.5
vt 0.390625 0.375
vt 0.1875 0.390625
vt 0.1875 0.375
vt 0.140625 0.375
vt 0.140625 0.390625
vt 0.1875 0.390625
vt 0.1875 0.375
vt 0.140625 0.375
vt 0.140625 0.390625
vt 0.25 0.375
vt 0.25 0.5
vt 0.125 0.5
vt 0.125 0.375
vt 0.625 0.734375
vt 0.625 0.859375
vt 0.5 0.859375
vt 0.5 0.734375
vt 0 1
vt 0 0.875
vt 0 0.875
vt 0 1
vt 0.1875 0.390625
vt 0.1875 0.375
vt 0.140625 0.375
vt 0.140625 0.390625
vt 0.1875 0.390625
vt 0.1875 0.375
vt 0.140625 0.375
vt 0.140625 0.390625
vt 0.1875 0.390625
vt 0.1875 0.375
vt 0.140625 0.375
vt 0.140625 0.390625
vt 0 1
vt 0 1
vt 0 0.9375
vt 0 0.9375
vt 0 1
vt 0 1
vt 0 0.9375
vt 0 0.9375
vt 0 1
vt 0.0625 1
vt 0 1
vt 0.0625 1
vt 0 1
vt 0.0625 1
vt 0 1
vt 0.0625 1
vt 0.49187270279155937 0.5580612649399935
vt 0.5513137350600065 0.5387477027915594
vt 0.5706272972084406 0.5981887350600065
vt 0.5111862649399935 0.6175022972084406
vt 0.4531249999999999 0.4374999999999999
vt 0.4531250000000001 0.5
vt 0.3906250000000001 0.5
vt 0.3906249999999999 0.4375
vt 0 1
vt 0 1
vt 0 0.75
vt 0 0.75
vt 0 1
vt 0.25 1
vt 0 1
vt 0.25 1
vt 0.5 0.46875
vt 0.5 0.734375
vt 0.25 0.734375
vt 0.25 0.46875
vt 0.25 0.734375
vt 0.25 1
vt 0.5 1
vt 0.5 0.734375
vt 0 1
vt 0 1
vt 0 0.75
vt 0 0.75
vt 0 1
vt 0 1
vt 0.25 1
vt 0.25 1
vt 0.25 0.46875
vt 0.25 0.734375
vt 0 0.734375
vt 0 0.46875
vt 0 0.734375
vt 0 1
vt 0.25 1
vt 0.25 0.734375
vn 0 0 0
vn 0 0 0
vn 0 0 0
vn 0 0 0
vn 0.4764983477323778 0.73884954437059 -0.47649834773237726
vn -0.4848216957225403 -0.7265472838685657 0.4869055017761974
vn -0.43649413124366726 0.786731051109382 0.4364941312436668
vn 0.46147030654989124 -0.7576874766983415 -0.4614703065498907
vn 0.7050833304009563 -0.003127701406189311 0.7091175605459292
vn -0.679789715987833 -0.003322122460880669 -0.7333995538173829
vn 0.6532814824381891 -0.38268343236508856 -0.6532814824381882
vn -0.6532814824381875 0.3826834323650925 0.6532814824381874
vn 0.27059805007309845 0.9238795325112868 -0.2705980500730981
vn -0.27059805007309906 -0.9238795325112866 0.2705980500730986
vn 0.7071067811865483 1.5728159515523098e-15 0.7071067811865468
vn -0.7071067811865461 4.662936703425672e-15 -0.7071067811865489
vn 0.5000000000000002 -0.7071067811865478 -0.49999999999999967
vn -0.5000000000000003 0.7071067811865476 0.4999999999999997
vn 0.5000000000000006 0.7071067811865472 -0.49999999999999994
vn -0.5 -0.7071067811865478 0.4999999999999999
vn 0.7071067811865476 0 0.7071067811865476
vn -0.7071067811865474 4.440892098500625e-16 -0.7071067811865478
vn 0 0 0
vn 0 0 0
vn 0 0 0
vn 0 0 0
vn 0.707106781186547 0 0.707106781186548
vn -0.707106781186547 0 -0.707106781186548
vn 0 0 0
vn 0 0 0
vn 0 0 0
vn 0 0 0
vn 0.7071067811865472 0 0.7071067811865479
vn -0.7071067811865469 4.44089209850063e-16 -0.7071067811865482
vn 0 0 0
vn 0 0 0
vn 0 0 0
vn 0 0 0
vn 0.7071067811865479 -3.330669073875468e-16 -0.7071067811865471
vn -0.707106781186548 4.440892098500628e-16 0.7071067811865471
vn -0.49999999999999944 0.7071067811865477 -0.5000000000000003
vn 0.4999999999999995 -0.7071067811865478 0.5000000000000003
vn 0.49999999999999956 0.7071067811865475 0.5000000000000006
vn -0.5000000000000007 -0.7071067811865458 -0.500000000000002
vn 0.7071067811865476 1.776356839400254e-15 -0.7071067811865476
vn -0.7071067811865489 4.440892098500633e-16 0.7071067811865462
vn -0.6532814824381872 -0.38268343236509117 -0.6532814824381886
vn 0.6532814824381883 0.38268343236508884 0.6532814824381887
vn -0.27059805007309823 0.9238795325112868 -0.2705980500730988
vn 0.270598050073099 -0.9238795325112866 0.27059805007309917
vn 0.7071067811865489 -1.924386576016943e-15 -0.7071067811865461
vn -0.7071067811865483 9.251858538542982e-16 0.7071067811865467
vn -0.6532814824381878 0.3826834323650897 -0.6532814824381886
vn 0.6532814824381872 -0.3826834323650916 0.6532814824381884
vn 0.2705980500730975 0.9238795325112872 0.27059805007309845
vn -0.27059805007309823 -0.9238795325112867 -0.2705980500730988
vn 0.7071067811865474 -5.921189464667494e-16 -0.7071067811865477
vn -0.7071067811865478 1.665334536937737e-16 0.7071067811865472
vn -0.4999999999999997 -0.7071067811865476 -0.5000000000000003
vn 0.49999999999999967 0.7071067811865478 0.5000000000000002
vn -0.5000000000000002 0.707106781186547 -0.5000000000000007
vn 0.4999999999999996 -0.7071067811865476 0.5000000000000003
vn 0.7071067811865489 2.2204460492503136e-16 -0.7071067811865462
vn -0.7071067811865487 -4.440892098500628e-16 0.7071067811865465
vn 0 0 0
vn 0 0 0
vn 0 0 0
vn 0 0 0
vn 0.7071067811865485 4.190823558986628e-31 -0.7071067811865468
vn -0.7071067811865481 -3.330669073875472e-16 0.7071067811865469
vn 0 0 0
vn 0 0 0
vn 0.7071067811865477 0 0.7071067811865475
vn -0.7071067811865477 0 -0.7071067811865475
vn 0 0 0
vn 0 0 0
vn -0.7071067811865475 0 0.7071067811865476
vn 0.7071067811865475 0 -0.7071067811865476
usemtl m_1e99b131-494f-3249-1f69-82905835cb6a
f 3/1/1 4/2/1 5/3/1 6/4/1
f 2/5/2 4/6/2 1/7/2 3/8/2
f 9/9/3 10/10/3 11/11/3 12/12/3
f 8/13/4 10/14/4 7/15/4 9/16/4
usemtl m_1c3902cb-2512-be19-e68a-4fe0145e3cbd
f 16/17/5 14/18/5 13/19/5 15/20/5
f 19/21/6 17/22/6 18/23/6 20/24/6
f 13/25/7 14/26/7 18/27/7 17/28/7
f 16/29/8 15/30/8 19/31/8 20/32/8
f 15/33/9 13/34/9 17/35/9 19/36/9
f 20/37/10 18/38/10 14/39/10 16/40/10
f 24/41/11 22/42/11 21/43/11 23/44/11
f 27/45/12 25/46/12 26/47/12 28/48/12
f 21/49/13 22/50/13 26/51/13 25/52/13
f 24/53/14 23/54/14 27/55/14 28/56/14
f 23/57/15 21/58/15 25/59/15 27/60/15
f 28/61/16 26/62/16 22/63/16 24/64/16
f 32/65/17 30/66/17 29/67/17 31/68/17
f 35/69/18 33/70/18 34/71/18 36/72/18
f 29/73/19 30/74/19 34/75/19 33/76/19
f 32/77/20 31/78/20 35/79/20 36/80/20
f 31/81/21 29/82/21 33/83/21 35/84/21
f 36/85/22 34/86/22 30/87/22 32/88/22
f 38/89/23 37/90/23 40/91/23 39/92/23
f 41/93/24 42/94/24 43/95/24 44/96/24
f 38/97/25 42/98/25 37/99/25 41/100/25
f 39/101/26 43/102/26 40/103/26 44/104/26
f 39/105/27 37/106/27 41/107/27 43/108/27
f 44/109/28 42/110/28 38/111/28 40/112/28
f 46/113/29 45/114/29 48/115/29 47/116/29
f 49/117/30 50/118/30 51/119/30 52/120/30
f 46/121/31 50/122/31 45/123/31 49/124/31
f 47/125/32 51/126/32 48/127/32 52/128/32
f 47/129/33 45/130/33 49/131/33 51/132/33
f 52/133/34 50/134/34 46/135/34 48/136/34
f 54/137/35 53/138/35 56/139/35 55/140/35
f 57/141/36 58/142/36 59/143/36 60/144/36
f 54/145/37 58/146/37 53/147/37 57/148/37
f 55/149/38 59/150/38 56/151/38 60/152/38
f 55/153/39 53/154/39 57/155/39 59/156/39
f 60/157/40 58/158/40 54/159/40 56/160/40
f 64/161/41 62/162/41 61/163/41 63/164/41
f 67/165/42 65/166/42 66/167/42 68/168/42
f 61/169/43 62/170/43 66/171/43 65/172/43
f 64/173/44 63/174/44 67/175/44 68/176/44
f 63/177/45 61/178/45 65/179/45 67/180/45
f 68/181/46 66/182/46 62/183/46 64/184/46
f 72/185/47 70/186/47 69/187/47 71/188/47
f 75/189/48 73/190/48 74/191/48 76/192/48
f 69/193/49 70/194/49 74/195/49 73/196/49
f 72/197/50 71/198/50 75/199/50 76/200/50
f 71/201/51 69/202/51 73/203/51 75/204/51
f 76/205/52 74/206/52 70/207/52 72/208/52
f 80/209/53 78/210/53 77/211/53 79/212/53
f 83/213/54 81/214/54 82/215/54 84/216/54
f 77/217/55 78/218/55 82/219/55 81/220/55
f 80/221/56 79/222/56 83/223/56 84/224/56
f 79/225/57 77/226/57 81/227/57 83/228/57
f 84/229/58 82/230/58 78/231/58 80/232/58
f 88/233/59 86/234/59 85/235/59 87/236/59
f 91/237/60 89/238/60 90/239/60 92/240/60
f 85/241/61 86/242/61 90/243/61 89/244/61
f 88/245/62 87/246/62 91/247/62 92/248/62
f 87/249/63 85/250/63 89/251/63 91/252/63
f 92/253/64 90/254/64 86/255/64 88/256/64
f 94/257/65 93/258/65 96/259/65 95/260/65
f 97/261/66 98/262/66 99/263/66 100/264/66
f 94/265/67 98/266/67 93/267/67 97/268/67
f 95/269/68 99/270/68 96/271/68 100/272/68
f 95/273/69 93/274/69 97/275/69 99/276/69
f 100/277/70 98/278/70 94/279/70 96/280/70
usemtl m_1e99b131-494f-3249-1f69-82905835cb6a
f 102/281/71 101/282/71 104/283/71 103/284/71
f 103/285/72 107/286/72 104/287/72 108/288/72
f 103/289/73 101/290/73 105/291/73 107/292/73
f 108/293/74 106/294/74 102/295/74 104/296/74
f 110/297/75 109/298/75 112/299/75 111/300/75
f 112/301/76 111/302/76 115/303/76 116/304/76
f 111/305/77 109/306/77 113/307/77 115/308/77
f 116/309/78 114/310/78 110/311/78 112/312/78